<svg width="64" height="64" viewBox="0 0 64 64" fill="none" xmlns="http://www.w3.org/2000/svg">
<mask id="mask0_276_281" style="mask-type:alpha" maskUnits="userSpaceOnUse" x="0" y="0" width="64" height="64">
<rect width="64" height="64" fill="#D9D9D9"/>
</mask>
<g mask="url(#mask0_276_281)">
<path d="M32.0047 31.6406C33.3313 31.6406 34.4656 31.1682 35.4073 30.2233C36.3496 29.2784 36.8207 28.1426 36.8207 26.816C36.8207 25.4893 36.3482 24.3548 35.4033 23.4126C34.4585 22.4708 33.3225 22 31.9953 22C30.6687 22 29.5345 22.4724 28.5927 23.4173C27.6505 24.3622 27.1793 25.4982 27.1793 26.8253C27.1793 28.152 27.6518 29.2862 28.5967 30.228C29.5416 31.1697 30.6776 31.6406 32.0047 31.6406ZM32 52.036C37.2169 47.3657 41.2091 42.8862 43.9767 38.5973C46.7442 34.3084 48.128 30.552 48.128 27.328C48.128 22.4666 46.5836 18.4702 43.4947 15.3386C40.4058 12.2071 36.5742 10.6413 32 10.6413C27.4258 10.6413 23.5942 12.2071 20.5053 15.3386C17.4165 18.4702 15.872 22.4666 15.872 27.328C15.872 30.552 17.2558 34.3084 20.0233 38.5973C22.7909 42.8862 26.7831 47.3657 32 52.036ZM32 57.3586C25.2889 51.5435 20.2565 46.1317 16.9027 41.1233C13.5489 36.1144 11.872 31.516 11.872 27.328C11.872 21.1742 13.8625 16.1922 17.8433 12.382C21.8247 8.57174 26.5436 6.66663 32 6.66663C37.4565 6.66663 42.1753 8.57174 46.1567 12.382C50.1376 16.1922 52.128 21.1742 52.128 27.328C52.128 31.516 50.4511 36.1144 47.0973 41.1233C43.7436 46.1317 38.7111 51.5435 32 57.3586Z" fill="white"/>
</g>
</svg>
