<svg width="24" height="24" viewBox="0 0 24 24" fill="none" xmlns="http://www.w3.org/2000/svg">
<mask id="mask0_49_134" style="mask-type:alpha" maskUnits="userSpaceOnUse" x="0" y="0" width="24" height="24">
<rect width="24" height="24" fill="#D9D9D9"/>
</mask>
<g mask="url(#mask0_49_134)">
<path d="M4.55975 20.5C4.25975 20.5 4.00808 20.4 3.80475 20.2C3.60158 20 3.5 19.75 3.5 19.45V16.2078C3.5 15.9654 3.57983 15.7487 3.7395 15.5577C3.89917 15.3667 4.10525 15.2379 4.35775 15.1713L7.1345 14.6058C7.37433 14.5724 7.60542 14.5884 7.82775 14.6538C8.05025 14.7193 8.23975 14.8334 8.39625 14.9963L10.6402 17.2598C11.3569 16.8546 12.0243 16.4167 12.6423 15.9462C13.2603 15.4757 13.8436 14.9661 14.3923 14.4173C14.9488 13.8648 15.4657 13.285 15.9432 12.678C16.4209 12.0708 16.8456 11.4269 17.2172 10.7462L14.9078 8.498C14.7616 8.36467 14.6603 8.19992 14.6038 8.00375C14.5474 7.80758 14.5391 7.573 14.5788 7.3L15.152 4.35775C15.2045 4.11542 15.3273 3.91192 15.5203 3.74725C15.7133 3.58242 15.936 3.5 16.1885 3.5H19.45C19.75 3.5 20 3.60158 20.2 3.80475C20.4 4.00808 20.5 4.25975 20.5 4.55975C20.5 6.44425 20.0618 8.33583 19.1855 10.2345C18.3092 12.1333 17.0762 13.8808 15.4865 15.477C13.8903 17.073 12.1413 18.3092 10.2395 19.1855C8.3375 20.0618 6.44425 20.5 4.55975 20.5Z" fill="white"/>
</g>
</svg>
