<svg width="64" height="64" viewBox="0 0 64 64" fill="none" xmlns="http://www.w3.org/2000/svg">
<mask id="mask0_276_237" style="mask-type:alpha" maskUnits="userSpaceOnUse" x="0" y="0" width="64" height="64">
<rect width="64" height="64" fill="#D9D9D9"/>
</mask>
<g mask="url(#mask0_276_237)">
<path d="M26.6667 36.5127C24.8036 36.5127 23.2267 35.8589 21.936 34.5514C20.6453 33.2438 20 31.6754 20 29.846C20 28.7487 20.2153 27.8394 20.646 27.118C21.0771 26.3967 21.484 25.6207 21.8667 24.79C21.7573 24.3114 21.6411 23.8276 21.518 23.3387C21.3949 22.8498 21.3333 22.3523 21.3333 21.846C21.3333 20.4251 21.7162 19.1631 22.482 18.06C23.2478 16.9569 24.3298 16.1114 25.728 15.5234C26.5147 14.6718 27.4053 13.9571 28.4 13.3794C29.3947 12.8016 30.5947 12.5127 32 12.5127C33.4391 12.5127 34.6476 12.8103 35.6253 13.4054C36.6031 14 37.4853 14.706 38.272 15.5234C39.6702 16.1114 40.7522 16.9569 41.518 18.06C42.2838 19.1631 42.6667 20.4251 42.6667 21.846C42.6667 22.3523 42.6051 22.8498 42.482 23.3387C42.3589 23.8276 42.2427 24.3114 42.1333 24.79C42.516 25.6207 42.9229 26.3967 43.354 27.118C43.7847 27.8394 44 28.7487 44 29.846C44 31.6754 43.3547 33.2438 42.064 34.5514C40.7733 35.8589 39.1964 36.5127 37.3333 36.5127H26.6667ZM26.6667 32.5127H37.3333C38.0889 32.5127 38.7222 32.246 39.2333 31.7127C39.7444 31.1794 40 30.5571 40 29.846C40 29.5349 39.9444 29.246 39.8333 28.9794C39.7222 28.7127 39.5556 28.446 39.3333 28.1794C38.8444 27.6016 38.5222 27.0349 38.3667 26.4794C38.2111 25.9238 38.1333 25.4016 38.1333 24.9127C38.1333 24.2016 38.2222 23.5905 38.4 23.0794C38.5778 22.5683 38.6667 22.1571 38.6667 21.846C38.6667 21.3127 38.5111 20.8238 38.2 20.3794C37.8889 19.9349 37.4889 19.6016 37 19.3794C36.6 19.2016 36.2333 19.0016 35.9 18.7794C35.5667 18.5571 35.2667 18.2683 35 17.9127C34.7778 17.646 34.4111 17.346 33.9 17.0127C33.3889 16.6794 32.7556 16.5127 32 16.5127C31.2444 16.5127 30.6111 16.6905 30.1 17.046C29.5889 17.4016 29.2222 17.7127 29 17.9794C28.7333 18.2905 28.4333 18.5571 28.1 18.7794C27.7667 19.0016 27.4 19.2016 27 19.3794C26.5111 19.6016 26.1111 19.9349 25.8 20.3794C25.4889 20.8238 25.3333 21.3127 25.3333 21.846C25.3333 22.1571 25.4222 22.5683 25.6 23.0794C25.7778 23.5905 25.8667 24.2016 25.8667 24.9127C25.8667 25.4016 25.7889 25.9238 25.6333 26.4794C25.4778 27.0349 25.1556 27.6016 24.6667 28.1794C24.4444 28.446 24.2778 28.7127 24.1667 28.9794C24.0556 29.246 24 29.5349 24 29.846C24 30.5571 24.2556 31.1794 24.7667 31.7127C25.2778 32.246 25.9111 32.5127 26.6667 32.5127ZM12 56.8207V50.892C12 49.5862 12.3547 48.3769 13.064 47.264C13.7733 46.1511 14.7213 45.2956 15.908 44.6974C18.5436 43.4054 21.2024 42.4362 23.8847 41.79C26.5669 41.1438 29.272 40.8207 32 40.8207C34.728 40.8207 37.4331 41.1438 40.1153 41.79C42.7976 42.4362 45.4564 43.4054 48.092 44.6974C49.2787 45.2956 50.2267 46.1511 50.936 47.264C51.6453 48.3769 52 49.5862 52 50.892V56.8207H12ZM16 52.8207H48V50.892C48 50.352 47.8436 49.852 47.5307 49.392C47.2178 48.9325 46.7931 48.5574 46.2567 48.2667C43.9589 47.1351 41.6162 46.2778 39.2287 45.6947C36.8407 45.112 34.4311 44.8207 32 44.8207C29.5689 44.8207 27.1593 45.112 24.7713 45.6947C22.3838 46.2778 20.0411 47.1351 17.7433 48.2667C17.2069 48.5574 16.7822 48.9325 16.4693 49.392C16.1564 49.852 16 50.352 16 50.892V52.8207Z" fill="white"/>
</g>
</svg>
