<?xml version="1.0" encoding="utf-8"?>
<!DOCTYPE svg PUBLIC "-//W3C//DTD SVG 1.1//EN" "http://www.w3.org/Graphics/SVG/1.1/DTD/svg11.dtd">
<svg version="1.1" id="Layer_1" xmlns="http://www.w3.org/2000/svg" xmlns:xlink="http://www.w3.org/1999/xlink" x="0px" y="0px"
width="232px" height="232px" viewBox="0 0 232 232" enable-background="new 0 0 232 232" xml:space="preserve">
<rect x="0" y="0" width="232" height="232" fill="rgb(255,255,255)" /><g transform="translate(16,16)"><g transform="translate(80,0) scale(0.016,0.016)"><g transform="" style="fill: rgb(0, 0, 0);">
<path d="M250,0c138.077,0,250,111.93,250,250c0,138.077-111.923,250-250,250C111.93,500,0,388.077,0,250C0,111.93,111.93,0,250,0z"
	/>
</g></g><g transform="translate(88,0) scale(0.016,0.016)"><g transform="" style="fill: rgb(0, 0, 0);">
<path d="M250,0c138.077,0,250,111.93,250,250c0,138.077-111.923,250-250,250C111.93,500,0,388.077,0,250C0,111.93,111.93,0,250,0z"
	/>
</g></g><g transform="translate(120,0) scale(0.016,0.016)"><g transform="" style="fill: rgb(0, 0, 0);">
<path d="M250,0c138.077,0,250,111.93,250,250c0,138.077-111.923,250-250,250C111.93,500,0,388.077,0,250C0,111.93,111.93,0,250,0z"
	/>
</g></g><g transform="translate(64,8) scale(0.016,0.016)"><g transform="" style="fill: rgb(0, 0, 0);">
<path d="M250,0c138.077,0,250,111.93,250,250c0,138.077-111.923,250-250,250C111.93,500,0,388.077,0,250C0,111.93,111.93,0,250,0z"
	/>
</g></g><g transform="translate(88,8) scale(0.016,0.016)"><g transform="" style="fill: rgb(0, 0, 0);">
<path d="M250,0c138.077,0,250,111.93,250,250c0,138.077-111.923,250-250,250C111.93,500,0,388.077,0,250C0,111.93,111.93,0,250,0z"
	/>
</g></g><g transform="translate(104,8) scale(0.016,0.016)"><g transform="" style="fill: rgb(0, 0, 0);">
<path d="M250,0c138.077,0,250,111.93,250,250c0,138.077-111.923,250-250,250C111.93,500,0,388.077,0,250C0,111.93,111.93,0,250,0z"
	/>
</g></g><g transform="translate(112,8) scale(0.016,0.016)"><g transform="" style="fill: rgb(0, 0, 0);">
<path d="M250,0c138.077,0,250,111.93,250,250c0,138.077-111.923,250-250,250C111.93,500,0,388.077,0,250C0,111.93,111.93,0,250,0z"
	/>
</g></g><g transform="translate(64,16) scale(0.016,0.016)"><g transform="" style="fill: rgb(0, 0, 0);">
<path d="M250,0c138.077,0,250,111.93,250,250c0,138.077-111.923,250-250,250C111.93,500,0,388.077,0,250C0,111.93,111.93,0,250,0z"
	/>
</g></g><g transform="translate(72,16) scale(0.016,0.016)"><g transform="" style="fill: rgb(0, 0, 0);">
<path d="M250,0c138.077,0,250,111.93,250,250c0,138.077-111.923,250-250,250C111.93,500,0,388.077,0,250C0,111.93,111.93,0,250,0z"
	/>
</g></g><g transform="translate(112,16) scale(0.016,0.016)"><g transform="" style="fill: rgb(0, 0, 0);">
<path d="M250,0c138.077,0,250,111.93,250,250c0,138.077-111.923,250-250,250C111.93,500,0,388.077,0,250C0,111.93,111.93,0,250,0z"
	/>
</g></g><g transform="translate(120,16) scale(0.016,0.016)"><g transform="" style="fill: rgb(0, 0, 0);">
<path d="M250,0c138.077,0,250,111.93,250,250c0,138.077-111.923,250-250,250C111.93,500,0,388.077,0,250C0,111.93,111.93,0,250,0z"
	/>
</g></g><g transform="translate(128,16) scale(0.016,0.016)"><g transform="" style="fill: rgb(0, 0, 0);">
<path d="M250,0c138.077,0,250,111.93,250,250c0,138.077-111.923,250-250,250C111.93,500,0,388.077,0,250C0,111.93,111.93,0,250,0z"
	/>
</g></g><g transform="translate(64,24) scale(0.016,0.016)"><g transform="" style="fill: rgb(0, 0, 0);">
<path d="M250,0c138.077,0,250,111.93,250,250c0,138.077-111.923,250-250,250C111.93,500,0,388.077,0,250C0,111.93,111.93,0,250,0z"
	/>
</g></g><g transform="translate(72,24) scale(0.016,0.016)"><g transform="" style="fill: rgb(0, 0, 0);">
<path d="M250,0c138.077,0,250,111.93,250,250c0,138.077-111.923,250-250,250C111.93,500,0,388.077,0,250C0,111.93,111.93,0,250,0z"
	/>
</g></g><g transform="translate(80,24) scale(0.016,0.016)"><g transform="" style="fill: rgb(0, 0, 0);">
<path d="M250,0c138.077,0,250,111.93,250,250c0,138.077-111.923,250-250,250C111.93,500,0,388.077,0,250C0,111.93,111.93,0,250,0z"
	/>
</g></g><g transform="translate(88,24) scale(0.016,0.016)"><g transform="" style="fill: rgb(0, 0, 0);">
<path d="M250,0c138.077,0,250,111.93,250,250c0,138.077-111.923,250-250,250C111.93,500,0,388.077,0,250C0,111.93,111.93,0,250,0z"
	/>
</g></g><g transform="translate(104,24) scale(0.016,0.016)"><g transform="" style="fill: rgb(0, 0, 0);">
<path d="M250,0c138.077,0,250,111.93,250,250c0,138.077-111.923,250-250,250C111.93,500,0,388.077,0,250C0,111.93,111.93,0,250,0z"
	/>
</g></g><g transform="translate(120,24) scale(0.016,0.016)"><g transform="" style="fill: rgb(0, 0, 0);">
<path d="M250,0c138.077,0,250,111.93,250,250c0,138.077-111.923,250-250,250C111.93,500,0,388.077,0,250C0,111.93,111.93,0,250,0z"
	/>
</g></g><g transform="translate(128,24) scale(0.016,0.016)"><g transform="" style="fill: rgb(0, 0, 0);">
<path d="M250,0c138.077,0,250,111.93,250,250c0,138.077-111.923,250-250,250C111.93,500,0,388.077,0,250C0,111.93,111.93,0,250,0z"
	/>
</g></g><g transform="translate(80,32) scale(0.016,0.016)"><g transform="" style="fill: rgb(0, 0, 0);">
<path d="M250,0c138.077,0,250,111.93,250,250c0,138.077-111.923,250-250,250C111.93,500,0,388.077,0,250C0,111.93,111.93,0,250,0z"
	/>
</g></g><g transform="translate(96,32) scale(0.016,0.016)"><g transform="" style="fill: rgb(0, 0, 0);">
<path d="M250,0c138.077,0,250,111.93,250,250c0,138.077-111.923,250-250,250C111.93,500,0,388.077,0,250C0,111.93,111.93,0,250,0z"
	/>
</g></g><g transform="translate(112,32) scale(0.016,0.016)"><g transform="" style="fill: rgb(0, 0, 0);">
<path d="M250,0c138.077,0,250,111.93,250,250c0,138.077-111.923,250-250,250C111.93,500,0,388.077,0,250C0,111.93,111.93,0,250,0z"
	/>
</g></g><g transform="translate(128,32) scale(0.016,0.016)"><g transform="" style="fill: rgb(0, 0, 0);">
<path d="M250,0c138.077,0,250,111.93,250,250c0,138.077-111.923,250-250,250C111.93,500,0,388.077,0,250C0,111.93,111.93,0,250,0z"
	/>
</g></g><g transform="translate(72,40) scale(0.016,0.016)"><g transform="" style="fill: rgb(0, 0, 0);">
<path d="M250,0c138.077,0,250,111.93,250,250c0,138.077-111.923,250-250,250C111.93,500,0,388.077,0,250C0,111.93,111.93,0,250,0z"
	/>
</g></g><g transform="translate(80,40) scale(0.016,0.016)"><g transform="" style="fill: rgb(0, 0, 0);">
<path d="M250,0c138.077,0,250,111.93,250,250c0,138.077-111.923,250-250,250C111.93,500,0,388.077,0,250C0,111.93,111.93,0,250,0z"
	/>
</g></g><g transform="translate(88,40) scale(0.016,0.016)"><g transform="" style="fill: rgb(0, 0, 0);">
<path d="M250,0c138.077,0,250,111.93,250,250c0,138.077-111.923,250-250,250C111.93,500,0,388.077,0,250C0,111.93,111.93,0,250,0z"
	/>
</g></g><g transform="translate(104,40) scale(0.016,0.016)"><g transform="" style="fill: rgb(0, 0, 0);">
<path d="M250,0c138.077,0,250,111.93,250,250c0,138.077-111.923,250-250,250C111.93,500,0,388.077,0,250C0,111.93,111.93,0,250,0z"
	/>
</g></g><g transform="translate(128,40) scale(0.016,0.016)"><g transform="" style="fill: rgb(0, 0, 0);">
<path d="M250,0c138.077,0,250,111.93,250,250c0,138.077-111.923,250-250,250C111.93,500,0,388.077,0,250C0,111.93,111.93,0,250,0z"
	/>
</g></g><g transform="translate(64,48) scale(0.016,0.016)"><g transform="" style="fill: rgb(0, 0, 0);">
<path d="M250,0c138.077,0,250,111.93,250,250c0,138.077-111.923,250-250,250C111.93,500,0,388.077,0,250C0,111.93,111.93,0,250,0z"
	/>
</g></g><g transform="translate(80,48) scale(0.016,0.016)"><g transform="" style="fill: rgb(0, 0, 0);">
<path d="M250,0c138.077,0,250,111.93,250,250c0,138.077-111.923,250-250,250C111.93,500,0,388.077,0,250C0,111.93,111.93,0,250,0z"
	/>
</g></g><g transform="translate(96,48) scale(0.016,0.016)"><g transform="" style="fill: rgb(0, 0, 0);">
<path d="M250,0c138.077,0,250,111.93,250,250c0,138.077-111.923,250-250,250C111.93,500,0,388.077,0,250C0,111.93,111.93,0,250,0z"
	/>
</g></g><g transform="translate(112,48) scale(0.016,0.016)"><g transform="" style="fill: rgb(0, 0, 0);">
<path d="M250,0c138.077,0,250,111.93,250,250c0,138.077-111.923,250-250,250C111.93,500,0,388.077,0,250C0,111.93,111.93,0,250,0z"
	/>
</g></g><g transform="translate(128,48) scale(0.016,0.016)"><g transform="" style="fill: rgb(0, 0, 0);">
<path d="M250,0c138.077,0,250,111.93,250,250c0,138.077-111.923,250-250,250C111.93,500,0,388.077,0,250C0,111.93,111.93,0,250,0z"
	/>
</g></g><g transform="translate(64,56) scale(0.016,0.016)"><g transform="" style="fill: rgb(0, 0, 0);">
<path d="M250,0c138.077,0,250,111.93,250,250c0,138.077-111.923,250-250,250C111.93,500,0,388.077,0,250C0,111.93,111.93,0,250,0z"
	/>
</g></g><g transform="translate(72,56) scale(0.016,0.016)"><g transform="" style="fill: rgb(0, 0, 0);">
<path d="M250,0c138.077,0,250,111.93,250,250c0,138.077-111.923,250-250,250C111.93,500,0,388.077,0,250C0,111.93,111.93,0,250,0z"
	/>
</g></g><g transform="translate(88,56) scale(0.016,0.016)"><g transform="" style="fill: rgb(0, 0, 0);">
<path d="M250,0c138.077,0,250,111.93,250,250c0,138.077-111.923,250-250,250C111.93,500,0,388.077,0,250C0,111.93,111.93,0,250,0z"
	/>
</g></g><g transform="translate(96,56) scale(0.016,0.016)"><g transform="" style="fill: rgb(0, 0, 0);">
<path d="M250,0c138.077,0,250,111.93,250,250c0,138.077-111.923,250-250,250C111.93,500,0,388.077,0,250C0,111.93,111.93,0,250,0z"
	/>
</g></g><g transform="translate(112,56) scale(0.016,0.016)"><g transform="" style="fill: rgb(0, 0, 0);">
<path d="M250,0c138.077,0,250,111.93,250,250c0,138.077-111.923,250-250,250C111.93,500,0,388.077,0,250C0,111.93,111.93,0,250,0z"
	/>
</g></g><g transform="translate(128,56) scale(0.016,0.016)"><g transform="" style="fill: rgb(0, 0, 0);">
<path d="M250,0c138.077,0,250,111.93,250,250c0,138.077-111.923,250-250,250C111.93,500,0,388.077,0,250C0,111.93,111.93,0,250,0z"
	/>
</g></g><g transform="translate(0,64) scale(0.016,0.016)"><g transform="" style="fill: rgb(0, 0, 0);">
<path d="M250,0c138.077,0,250,111.93,250,250c0,138.077-111.923,250-250,250C111.93,500,0,388.077,0,250C0,111.93,111.93,0,250,0z"
	/>
</g></g><g transform="translate(48,64) scale(0.016,0.016)"><g transform="" style="fill: rgb(0, 0, 0);">
<path d="M250,0c138.077,0,250,111.93,250,250c0,138.077-111.923,250-250,250C111.93,500,0,388.077,0,250C0,111.93,111.93,0,250,0z"
	/>
</g></g><g transform="translate(64,64) scale(0.016,0.016)"><g transform="" style="fill: rgb(0, 0, 0);">
<path d="M250,0c138.077,0,250,111.93,250,250c0,138.077-111.923,250-250,250C111.93,500,0,388.077,0,250C0,111.93,111.93,0,250,0z"
	/>
</g></g><g transform="translate(80,64) scale(0.016,0.016)"><g transform="" style="fill: rgb(0, 0, 0);">
<path d="M250,0c138.077,0,250,111.93,250,250c0,138.077-111.923,250-250,250C111.93,500,0,388.077,0,250C0,111.93,111.93,0,250,0z"
	/>
</g></g><g transform="translate(96,64) scale(0.016,0.016)"><g transform="" style="fill: rgb(0, 0, 0);">
<path d="M250,0c138.077,0,250,111.93,250,250c0,138.077-111.923,250-250,250C111.93,500,0,388.077,0,250C0,111.93,111.93,0,250,0z"
	/>
</g></g><g transform="translate(104,64) scale(0.016,0.016)"><g transform="" style="fill: rgb(0, 0, 0);">
<path d="M250,0c138.077,0,250,111.93,250,250c0,138.077-111.923,250-250,250C111.93,500,0,388.077,0,250C0,111.93,111.93,0,250,0z"
	/>
</g></g><g transform="translate(112,64) scale(0.016,0.016)"><g transform="" style="fill: rgb(0, 0, 0);">
<path d="M250,0c138.077,0,250,111.93,250,250c0,138.077-111.923,250-250,250C111.93,500,0,388.077,0,250C0,111.93,111.93,0,250,0z"
	/>
</g></g><g transform="translate(120,64) scale(0.016,0.016)"><g transform="" style="fill: rgb(0, 0, 0);">
<path d="M250,0c138.077,0,250,111.93,250,250c0,138.077-111.923,250-250,250C111.93,500,0,388.077,0,250C0,111.93,111.93,0,250,0z"
	/>
</g></g><g transform="translate(128,64) scale(0.016,0.016)"><g transform="" style="fill: rgb(0, 0, 0);">
<path d="M250,0c138.077,0,250,111.93,250,250c0,138.077-111.923,250-250,250C111.93,500,0,388.077,0,250C0,111.93,111.93,0,250,0z"
	/>
</g></g><g transform="translate(136,64) scale(0.016,0.016)"><g transform="" style="fill: rgb(0, 0, 0);">
<path d="M250,0c138.077,0,250,111.93,250,250c0,138.077-111.923,250-250,250C111.93,500,0,388.077,0,250C0,111.93,111.93,0,250,0z"
	/>
</g></g><g transform="translate(144,64) scale(0.016,0.016)"><g transform="" style="fill: rgb(0, 0, 0);">
<path d="M250,0c138.077,0,250,111.93,250,250c0,138.077-111.923,250-250,250C111.93,500,0,388.077,0,250C0,111.93,111.93,0,250,0z"
	/>
</g></g><g transform="translate(168,64) scale(0.016,0.016)"><g transform="" style="fill: rgb(0, 0, 0);">
<path d="M250,0c138.077,0,250,111.93,250,250c0,138.077-111.923,250-250,250C111.93,500,0,388.077,0,250C0,111.93,111.93,0,250,0z"
	/>
</g></g><g transform="translate(176,64) scale(0.016,0.016)"><g transform="" style="fill: rgb(0, 0, 0);">
<path d="M250,0c138.077,0,250,111.93,250,250c0,138.077-111.923,250-250,250C111.93,500,0,388.077,0,250C0,111.93,111.93,0,250,0z"
	/>
</g></g><g transform="translate(184,64) scale(0.016,0.016)"><g transform="" style="fill: rgb(0, 0, 0);">
<path d="M250,0c138.077,0,250,111.93,250,250c0,138.077-111.923,250-250,250C111.93,500,0,388.077,0,250C0,111.93,111.93,0,250,0z"
	/>
</g></g><g transform="translate(0,72) scale(0.016,0.016)"><g transform="" style="fill: rgb(0, 0, 0);">
<path d="M250,0c138.077,0,250,111.93,250,250c0,138.077-111.923,250-250,250C111.93,500,0,388.077,0,250C0,111.93,111.93,0,250,0z"
	/>
</g></g><g transform="translate(16,72) scale(0.016,0.016)"><g transform="" style="fill: rgb(0, 0, 0);">
<path d="M250,0c138.077,0,250,111.93,250,250c0,138.077-111.923,250-250,250C111.93,500,0,388.077,0,250C0,111.93,111.93,0,250,0z"
	/>
</g></g><g transform="translate(24,72) scale(0.016,0.016)"><g transform="" style="fill: rgb(0, 0, 0);">
<path d="M250,0c138.077,0,250,111.93,250,250c0,138.077-111.923,250-250,250C111.93,500,0,388.077,0,250C0,111.93,111.93,0,250,0z"
	/>
</g></g><g transform="translate(40,72) scale(0.016,0.016)"><g transform="" style="fill: rgb(0, 0, 0);">
<path d="M250,0c138.077,0,250,111.93,250,250c0,138.077-111.923,250-250,250C111.93,500,0,388.077,0,250C0,111.93,111.93,0,250,0z"
	/>
</g></g><g transform="translate(80,72) scale(0.016,0.016)"><g transform="" style="fill: rgb(0, 0, 0);">
<path d="M250,0c138.077,0,250,111.93,250,250c0,138.077-111.923,250-250,250C111.93,500,0,388.077,0,250C0,111.93,111.93,0,250,0z"
	/>
</g></g><g transform="translate(104,72) scale(0.016,0.016)"><g transform="" style="fill: rgb(0, 0, 0);">
<path d="M250,0c138.077,0,250,111.93,250,250c0,138.077-111.923,250-250,250C111.93,500,0,388.077,0,250C0,111.93,111.93,0,250,0z"
	/>
</g></g><g transform="translate(112,72) scale(0.016,0.016)"><g transform="" style="fill: rgb(0, 0, 0);">
<path d="M250,0c138.077,0,250,111.93,250,250c0,138.077-111.923,250-250,250C111.93,500,0,388.077,0,250C0,111.93,111.93,0,250,0z"
	/>
</g></g><g transform="translate(120,72) scale(0.016,0.016)"><g transform="" style="fill: rgb(0, 0, 0);">
<path d="M250,0c138.077,0,250,111.93,250,250c0,138.077-111.923,250-250,250C111.93,500,0,388.077,0,250C0,111.93,111.93,0,250,0z"
	/>
</g></g><g transform="translate(160,72) scale(0.016,0.016)"><g transform="" style="fill: rgb(0, 0, 0);">
<path d="M250,0c138.077,0,250,111.93,250,250c0,138.077-111.923,250-250,250C111.93,500,0,388.077,0,250C0,111.93,111.93,0,250,0z"
	/>
</g></g><g transform="translate(168,72) scale(0.016,0.016)"><g transform="" style="fill: rgb(0, 0, 0);">
<path d="M250,0c138.077,0,250,111.93,250,250c0,138.077-111.923,250-250,250C111.93,500,0,388.077,0,250C0,111.93,111.93,0,250,0z"
	/>
</g></g><g transform="translate(176,72) scale(0.016,0.016)"><g transform="" style="fill: rgb(0, 0, 0);">
<path d="M250,0c138.077,0,250,111.93,250,250c0,138.077-111.923,250-250,250C111.93,500,0,388.077,0,250C0,111.93,111.93,0,250,0z"
	/>
</g></g><g transform="translate(184,72) scale(0.016,0.016)"><g transform="" style="fill: rgb(0, 0, 0);">
<path d="M250,0c138.077,0,250,111.93,250,250c0,138.077-111.923,250-250,250C111.93,500,0,388.077,0,250C0,111.93,111.93,0,250,0z"
	/>
</g></g><g transform="translate(0,80) scale(0.016,0.016)"><g transform="" style="fill: rgb(0, 0, 0);">
<path d="M250,0c138.077,0,250,111.93,250,250c0,138.077-111.923,250-250,250C111.93,500,0,388.077,0,250C0,111.93,111.93,0,250,0z"
	/>
</g></g><g transform="translate(16,80) scale(0.016,0.016)"><g transform="" style="fill: rgb(0, 0, 0);">
<path d="M250,0c138.077,0,250,111.93,250,250c0,138.077-111.923,250-250,250C111.93,500,0,388.077,0,250C0,111.93,111.93,0,250,0z"
	/>
</g></g><g transform="translate(32,80) scale(0.016,0.016)"><g transform="" style="fill: rgb(0, 0, 0);">
<path d="M250,0c138.077,0,250,111.93,250,250c0,138.077-111.923,250-250,250C111.93,500,0,388.077,0,250C0,111.93,111.93,0,250,0z"
	/>
</g></g><g transform="translate(48,80) scale(0.016,0.016)"><g transform="" style="fill: rgb(0, 0, 0);">
<path d="M250,0c138.077,0,250,111.93,250,250c0,138.077-111.923,250-250,250C111.93,500,0,388.077,0,250C0,111.93,111.93,0,250,0z"
	/>
</g></g><g transform="translate(64,80) scale(0.016,0.016)"><g transform="" style="fill: rgb(0, 0, 0);">
<path d="M250,0c138.077,0,250,111.93,250,250c0,138.077-111.923,250-250,250C111.93,500,0,388.077,0,250C0,111.93,111.93,0,250,0z"
	/>
</g></g><g transform="translate(80,80) scale(0.016,0.016)"><g transform="" style="fill: rgb(0, 0, 0);">
<path d="M250,0c138.077,0,250,111.93,250,250c0,138.077-111.923,250-250,250C111.93,500,0,388.077,0,250C0,111.93,111.93,0,250,0z"
	/>
</g></g><g transform="translate(88,80) scale(0.016,0.016)"><g transform="" style="fill: rgb(0, 0, 0);">
<path d="M250,0c138.077,0,250,111.93,250,250c0,138.077-111.923,250-250,250C111.93,500,0,388.077,0,250C0,111.93,111.93,0,250,0z"
	/>
</g></g><g transform="translate(96,80) scale(0.016,0.016)"><g transform="" style="fill: rgb(0, 0, 0);">
<path d="M250,0c138.077,0,250,111.93,250,250c0,138.077-111.923,250-250,250C111.93,500,0,388.077,0,250C0,111.93,111.93,0,250,0z"
	/>
</g></g><g transform="translate(120,80) scale(0.016,0.016)"><g transform="" style="fill: rgb(0, 0, 0);">
<path d="M250,0c138.077,0,250,111.93,250,250c0,138.077-111.923,250-250,250C111.93,500,0,388.077,0,250C0,111.93,111.93,0,250,0z"
	/>
</g></g><g transform="translate(136,80) scale(0.016,0.016)"><g transform="" style="fill: rgb(0, 0, 0);">
<path d="M250,0c138.077,0,250,111.93,250,250c0,138.077-111.923,250-250,250C111.93,500,0,388.077,0,250C0,111.93,111.93,0,250,0z"
	/>
</g></g><g transform="translate(168,80) scale(0.016,0.016)"><g transform="" style="fill: rgb(0, 0, 0);">
<path d="M250,0c138.077,0,250,111.93,250,250c0,138.077-111.923,250-250,250C111.93,500,0,388.077,0,250C0,111.93,111.93,0,250,0z"
	/>
</g></g><g transform="translate(184,80) scale(0.016,0.016)"><g transform="" style="fill: rgb(0, 0, 0);">
<path d="M250,0c138.077,0,250,111.93,250,250c0,138.077-111.923,250-250,250C111.93,500,0,388.077,0,250C0,111.93,111.93,0,250,0z"
	/>
</g></g><g transform="translate(192,80) scale(0.016,0.016)"><g transform="" style="fill: rgb(0, 0, 0);">
<path d="M250,0c138.077,0,250,111.93,250,250c0,138.077-111.923,250-250,250C111.93,500,0,388.077,0,250C0,111.93,111.93,0,250,0z"
	/>
</g></g><g transform="translate(16,88) scale(0.016,0.016)"><g transform="" style="fill: rgb(0, 0, 0);">
<path d="M250,0c138.077,0,250,111.93,250,250c0,138.077-111.923,250-250,250C111.93,500,0,388.077,0,250C0,111.93,111.93,0,250,0z"
	/>
</g></g><g transform="translate(24,88) scale(0.016,0.016)"><g transform="" style="fill: rgb(0, 0, 0);">
<path d="M250,0c138.077,0,250,111.93,250,250c0,138.077-111.923,250-250,250C111.93,500,0,388.077,0,250C0,111.93,111.93,0,250,0z"
	/>
</g></g><g transform="translate(40,88) scale(0.016,0.016)"><g transform="" style="fill: rgb(0, 0, 0);">
<path d="M250,0c138.077,0,250,111.93,250,250c0,138.077-111.923,250-250,250C111.93,500,0,388.077,0,250C0,111.93,111.93,0,250,0z"
	/>
</g></g><g transform="translate(72,88) scale(0.016,0.016)"><g transform="" style="fill: rgb(0, 0, 0);">
<path d="M250,0c138.077,0,250,111.93,250,250c0,138.077-111.923,250-250,250C111.93,500,0,388.077,0,250C0,111.93,111.93,0,250,0z"
	/>
</g></g><g transform="translate(96,88) scale(0.016,0.016)"><g transform="" style="fill: rgb(0, 0, 0);">
<path d="M250,0c138.077,0,250,111.93,250,250c0,138.077-111.923,250-250,250C111.93,500,0,388.077,0,250C0,111.93,111.93,0,250,0z"
	/>
</g></g><g transform="translate(120,88) scale(0.016,0.016)"><g transform="" style="fill: rgb(0, 0, 0);">
<path d="M250,0c138.077,0,250,111.93,250,250c0,138.077-111.923,250-250,250C111.93,500,0,388.077,0,250C0,111.93,111.93,0,250,0z"
	/>
</g></g><g transform="translate(152,88) scale(0.016,0.016)"><g transform="" style="fill: rgb(0, 0, 0);">
<path d="M250,0c138.077,0,250,111.93,250,250c0,138.077-111.923,250-250,250C111.93,500,0,388.077,0,250C0,111.93,111.93,0,250,0z"
	/>
</g></g><g transform="translate(168,88) scale(0.016,0.016)"><g transform="" style="fill: rgb(0, 0, 0);">
<path d="M250,0c138.077,0,250,111.93,250,250c0,138.077-111.923,250-250,250C111.93,500,0,388.077,0,250C0,111.93,111.93,0,250,0z"
	/>
</g></g><g transform="translate(192,88) scale(0.016,0.016)"><g transform="" style="fill: rgb(0, 0, 0);">
<path d="M250,0c138.077,0,250,111.93,250,250c0,138.077-111.923,250-250,250C111.93,500,0,388.077,0,250C0,111.93,111.93,0,250,0z"
	/>
</g></g><g transform="translate(24,96) scale(0.016,0.016)"><g transform="" style="fill: rgb(0, 0, 0);">
<path d="M250,0c138.077,0,250,111.93,250,250c0,138.077-111.923,250-250,250C111.93,500,0,388.077,0,250C0,111.93,111.93,0,250,0z"
	/>
</g></g><g transform="translate(40,96) scale(0.016,0.016)"><g transform="" style="fill: rgb(0, 0, 0);">
<path d="M250,0c138.077,0,250,111.93,250,250c0,138.077-111.923,250-250,250C111.93,500,0,388.077,0,250C0,111.93,111.93,0,250,0z"
	/>
</g></g><g transform="translate(48,96) scale(0.016,0.016)"><g transform="" style="fill: rgb(0, 0, 0);">
<path d="M250,0c138.077,0,250,111.93,250,250c0,138.077-111.923,250-250,250C111.93,500,0,388.077,0,250C0,111.93,111.93,0,250,0z"
	/>
</g></g><g transform="translate(64,96) scale(0.016,0.016)"><g transform="" style="fill: rgb(0, 0, 0);">
<path d="M250,0c138.077,0,250,111.93,250,250c0,138.077-111.923,250-250,250C111.93,500,0,388.077,0,250C0,111.93,111.93,0,250,0z"
	/>
</g></g><g transform="translate(88,96) scale(0.016,0.016)"><g transform="" style="fill: rgb(0, 0, 0);">
<path d="M250,0c138.077,0,250,111.93,250,250c0,138.077-111.923,250-250,250C111.93,500,0,388.077,0,250C0,111.93,111.93,0,250,0z"
	/>
</g></g><g transform="translate(128,96) scale(0.016,0.016)"><g transform="" style="fill: rgb(0, 0, 0);">
<path d="M250,0c138.077,0,250,111.93,250,250c0,138.077-111.923,250-250,250C111.93,500,0,388.077,0,250C0,111.93,111.93,0,250,0z"
	/>
</g></g><g transform="translate(144,96) scale(0.016,0.016)"><g transform="" style="fill: rgb(0, 0, 0);">
<path d="M250,0c138.077,0,250,111.93,250,250c0,138.077-111.923,250-250,250C111.93,500,0,388.077,0,250C0,111.93,111.93,0,250,0z"
	/>
</g></g><g transform="translate(192,96) scale(0.016,0.016)"><g transform="" style="fill: rgb(0, 0, 0);">
<path d="M250,0c138.077,0,250,111.93,250,250c0,138.077-111.923,250-250,250C111.93,500,0,388.077,0,250C0,111.93,111.93,0,250,0z"
	/>
</g></g><g transform="translate(0,104) scale(0.016,0.016)"><g transform="" style="fill: rgb(0, 0, 0);">
<path d="M250,0c138.077,0,250,111.93,250,250c0,138.077-111.923,250-250,250C111.93,500,0,388.077,0,250C0,111.93,111.93,0,250,0z"
	/>
</g></g><g transform="translate(8,104) scale(0.016,0.016)"><g transform="" style="fill: rgb(0, 0, 0);">
<path d="M250,0c138.077,0,250,111.93,250,250c0,138.077-111.923,250-250,250C111.93,500,0,388.077,0,250C0,111.93,111.93,0,250,0z"
	/>
</g></g><g transform="translate(16,104) scale(0.016,0.016)"><g transform="" style="fill: rgb(0, 0, 0);">
<path d="M250,0c138.077,0,250,111.93,250,250c0,138.077-111.923,250-250,250C111.93,500,0,388.077,0,250C0,111.93,111.93,0,250,0z"
	/>
</g></g><g transform="translate(24,104) scale(0.016,0.016)"><g transform="" style="fill: rgb(0, 0, 0);">
<path d="M250,0c138.077,0,250,111.93,250,250c0,138.077-111.923,250-250,250C111.93,500,0,388.077,0,250C0,111.93,111.93,0,250,0z"
	/>
</g></g><g transform="translate(56,104) scale(0.016,0.016)"><g transform="" style="fill: rgb(0, 0, 0);">
<path d="M250,0c138.077,0,250,111.93,250,250c0,138.077-111.923,250-250,250C111.93,500,0,388.077,0,250C0,111.93,111.93,0,250,0z"
	/>
</g></g><g transform="translate(64,104) scale(0.016,0.016)"><g transform="" style="fill: rgb(0, 0, 0);">
<path d="M250,0c138.077,0,250,111.93,250,250c0,138.077-111.923,250-250,250C111.93,500,0,388.077,0,250C0,111.93,111.93,0,250,0z"
	/>
</g></g><g transform="translate(72,104) scale(0.016,0.016)"><g transform="" style="fill: rgb(0, 0, 0);">
<path d="M250,0c138.077,0,250,111.93,250,250c0,138.077-111.923,250-250,250C111.93,500,0,388.077,0,250C0,111.93,111.93,0,250,0z"
	/>
</g></g><g transform="translate(96,104) scale(0.016,0.016)"><g transform="" style="fill: rgb(0, 0, 0);">
<path d="M250,0c138.077,0,250,111.93,250,250c0,138.077-111.923,250-250,250C111.93,500,0,388.077,0,250C0,111.93,111.93,0,250,0z"
	/>
</g></g><g transform="translate(104,104) scale(0.016,0.016)"><g transform="" style="fill: rgb(0, 0, 0);">
<path d="M250,0c138.077,0,250,111.93,250,250c0,138.077-111.923,250-250,250C111.93,500,0,388.077,0,250C0,111.93,111.93,0,250,0z"
	/>
</g></g><g transform="translate(120,104) scale(0.016,0.016)"><g transform="" style="fill: rgb(0, 0, 0);">
<path d="M250,0c138.077,0,250,111.93,250,250c0,138.077-111.923,250-250,250C111.93,500,0,388.077,0,250C0,111.93,111.93,0,250,0z"
	/>
</g></g><g transform="translate(128,104) scale(0.016,0.016)"><g transform="" style="fill: rgb(0, 0, 0);">
<path d="M250,0c138.077,0,250,111.93,250,250c0,138.077-111.923,250-250,250C111.93,500,0,388.077,0,250C0,111.93,111.93,0,250,0z"
	/>
</g></g><g transform="translate(152,104) scale(0.016,0.016)"><g transform="" style="fill: rgb(0, 0, 0);">
<path d="M250,0c138.077,0,250,111.93,250,250c0,138.077-111.923,250-250,250C111.93,500,0,388.077,0,250C0,111.93,111.93,0,250,0z"
	/>
</g></g><g transform="translate(184,104) scale(0.016,0.016)"><g transform="" style="fill: rgb(0, 0, 0);">
<path d="M250,0c138.077,0,250,111.93,250,250c0,138.077-111.923,250-250,250C111.93,500,0,388.077,0,250C0,111.93,111.93,0,250,0z"
	/>
</g></g><g transform="translate(0,112) scale(0.016,0.016)"><g transform="" style="fill: rgb(0, 0, 0);">
<path d="M250,0c138.077,0,250,111.93,250,250c0,138.077-111.923,250-250,250C111.93,500,0,388.077,0,250C0,111.93,111.93,0,250,0z"
	/>
</g></g><g transform="translate(24,112) scale(0.016,0.016)"><g transform="" style="fill: rgb(0, 0, 0);">
<path d="M250,0c138.077,0,250,111.93,250,250c0,138.077-111.923,250-250,250C111.93,500,0,388.077,0,250C0,111.93,111.93,0,250,0z"
	/>
</g></g><g transform="translate(32,112) scale(0.016,0.016)"><g transform="" style="fill: rgb(0, 0, 0);">
<path d="M250,0c138.077,0,250,111.93,250,250c0,138.077-111.923,250-250,250C111.93,500,0,388.077,0,250C0,111.93,111.93,0,250,0z"
	/>
</g></g><g transform="translate(40,112) scale(0.016,0.016)"><g transform="" style="fill: rgb(0, 0, 0);">
<path d="M250,0c138.077,0,250,111.93,250,250c0,138.077-111.923,250-250,250C111.93,500,0,388.077,0,250C0,111.93,111.93,0,250,0z"
	/>
</g></g><g transform="translate(48,112) scale(0.016,0.016)"><g transform="" style="fill: rgb(0, 0, 0);">
<path d="M250,0c138.077,0,250,111.93,250,250c0,138.077-111.923,250-250,250C111.93,500,0,388.077,0,250C0,111.93,111.93,0,250,0z"
	/>
</g></g><g transform="translate(56,112) scale(0.016,0.016)"><g transform="" style="fill: rgb(0, 0, 0);">
<path d="M250,0c138.077,0,250,111.93,250,250c0,138.077-111.923,250-250,250C111.93,500,0,388.077,0,250C0,111.93,111.93,0,250,0z"
	/>
</g></g><g transform="translate(80,112) scale(0.016,0.016)"><g transform="" style="fill: rgb(0, 0, 0);">
<path d="M250,0c138.077,0,250,111.93,250,250c0,138.077-111.923,250-250,250C111.93,500,0,388.077,0,250C0,111.93,111.93,0,250,0z"
	/>
</g></g><g transform="translate(104,112) scale(0.016,0.016)"><g transform="" style="fill: rgb(0, 0, 0);">
<path d="M250,0c138.077,0,250,111.93,250,250c0,138.077-111.923,250-250,250C111.93,500,0,388.077,0,250C0,111.93,111.93,0,250,0z"
	/>
</g></g><g transform="translate(112,112) scale(0.016,0.016)"><g transform="" style="fill: rgb(0, 0, 0);">
<path d="M250,0c138.077,0,250,111.93,250,250c0,138.077-111.923,250-250,250C111.93,500,0,388.077,0,250C0,111.93,111.93,0,250,0z"
	/>
</g></g><g transform="translate(120,112) scale(0.016,0.016)"><g transform="" style="fill: rgb(0, 0, 0);">
<path d="M250,0c138.077,0,250,111.93,250,250c0,138.077-111.923,250-250,250C111.93,500,0,388.077,0,250C0,111.93,111.93,0,250,0z"
	/>
</g></g><g transform="translate(136,112) scale(0.016,0.016)"><g transform="" style="fill: rgb(0, 0, 0);">
<path d="M250,0c138.077,0,250,111.93,250,250c0,138.077-111.923,250-250,250C111.93,500,0,388.077,0,250C0,111.93,111.93,0,250,0z"
	/>
</g></g><g transform="translate(152,112) scale(0.016,0.016)"><g transform="" style="fill: rgb(0, 0, 0);">
<path d="M250,0c138.077,0,250,111.93,250,250c0,138.077-111.923,250-250,250C111.93,500,0,388.077,0,250C0,111.93,111.93,0,250,0z"
	/>
</g></g><g transform="translate(160,112) scale(0.016,0.016)"><g transform="" style="fill: rgb(0, 0, 0);">
<path d="M250,0c138.077,0,250,111.93,250,250c0,138.077-111.923,250-250,250C111.93,500,0,388.077,0,250C0,111.93,111.93,0,250,0z"
	/>
</g></g><g transform="translate(168,112) scale(0.016,0.016)"><g transform="" style="fill: rgb(0, 0, 0);">
<path d="M250,0c138.077,0,250,111.93,250,250c0,138.077-111.923,250-250,250C111.93,500,0,388.077,0,250C0,111.93,111.93,0,250,0z"
	/>
</g></g><g transform="translate(184,112) scale(0.016,0.016)"><g transform="" style="fill: rgb(0, 0, 0);">
<path d="M250,0c138.077,0,250,111.93,250,250c0,138.077-111.923,250-250,250C111.93,500,0,388.077,0,250C0,111.93,111.93,0,250,0z"
	/>
</g></g><g transform="translate(192,112) scale(0.016,0.016)"><g transform="" style="fill: rgb(0, 0, 0);">
<path d="M250,0c138.077,0,250,111.93,250,250c0,138.077-111.923,250-250,250C111.93,500,0,388.077,0,250C0,111.93,111.93,0,250,0z"
	/>
</g></g><g transform="translate(0,120) scale(0.016,0.016)"><g transform="" style="fill: rgb(0, 0, 0);">
<path d="M250,0c138.077,0,250,111.93,250,250c0,138.077-111.923,250-250,250C111.93,500,0,388.077,0,250C0,111.93,111.93,0,250,0z"
	/>
</g></g><g transform="translate(16,120) scale(0.016,0.016)"><g transform="" style="fill: rgb(0, 0, 0);">
<path d="M250,0c138.077,0,250,111.93,250,250c0,138.077-111.923,250-250,250C111.93,500,0,388.077,0,250C0,111.93,111.93,0,250,0z"
	/>
</g></g><g transform="translate(56,120) scale(0.016,0.016)"><g transform="" style="fill: rgb(0, 0, 0);">
<path d="M250,0c138.077,0,250,111.93,250,250c0,138.077-111.923,250-250,250C111.93,500,0,388.077,0,250C0,111.93,111.93,0,250,0z"
	/>
</g></g><g transform="translate(64,120) scale(0.016,0.016)"><g transform="" style="fill: rgb(0, 0, 0);">
<path d="M250,0c138.077,0,250,111.93,250,250c0,138.077-111.923,250-250,250C111.93,500,0,388.077,0,250C0,111.93,111.93,0,250,0z"
	/>
</g></g><g transform="translate(80,120) scale(0.016,0.016)"><g transform="" style="fill: rgb(0, 0, 0);">
<path d="M250,0c138.077,0,250,111.93,250,250c0,138.077-111.923,250-250,250C111.93,500,0,388.077,0,250C0,111.93,111.93,0,250,0z"
	/>
</g></g><g transform="translate(96,120) scale(0.016,0.016)"><g transform="" style="fill: rgb(0, 0, 0);">
<path d="M250,0c138.077,0,250,111.93,250,250c0,138.077-111.923,250-250,250C111.93,500,0,388.077,0,250C0,111.93,111.93,0,250,0z"
	/>
</g></g><g transform="translate(136,120) scale(0.016,0.016)"><g transform="" style="fill: rgb(0, 0, 0);">
<path d="M250,0c138.077,0,250,111.93,250,250c0,138.077-111.923,250-250,250C111.93,500,0,388.077,0,250C0,111.93,111.93,0,250,0z"
	/>
</g></g><g transform="translate(144,120) scale(0.016,0.016)"><g transform="" style="fill: rgb(0, 0, 0);">
<path d="M250,0c138.077,0,250,111.93,250,250c0,138.077-111.923,250-250,250C111.93,500,0,388.077,0,250C0,111.93,111.93,0,250,0z"
	/>
</g></g><g transform="translate(152,120) scale(0.016,0.016)"><g transform="" style="fill: rgb(0, 0, 0);">
<path d="M250,0c138.077,0,250,111.93,250,250c0,138.077-111.923,250-250,250C111.93,500,0,388.077,0,250C0,111.93,111.93,0,250,0z"
	/>
</g></g><g transform="translate(168,120) scale(0.016,0.016)"><g transform="" style="fill: rgb(0, 0, 0);">
<path d="M250,0c138.077,0,250,111.93,250,250c0,138.077-111.923,250-250,250C111.93,500,0,388.077,0,250C0,111.93,111.93,0,250,0z"
	/>
</g></g><g transform="translate(176,120) scale(0.016,0.016)"><g transform="" style="fill: rgb(0, 0, 0);">
<path d="M250,0c138.077,0,250,111.93,250,250c0,138.077-111.923,250-250,250C111.93,500,0,388.077,0,250C0,111.93,111.93,0,250,0z"
	/>
</g></g><g transform="translate(192,120) scale(0.016,0.016)"><g transform="" style="fill: rgb(0, 0, 0);">
<path d="M250,0c138.077,0,250,111.93,250,250c0,138.077-111.923,250-250,250C111.93,500,0,388.077,0,250C0,111.93,111.93,0,250,0z"
	/>
</g></g><g transform="translate(0,128) scale(0.016,0.016)"><g transform="" style="fill: rgb(0, 0, 0);">
<path d="M250,0c138.077,0,250,111.93,250,250c0,138.077-111.923,250-250,250C111.93,500,0,388.077,0,250C0,111.93,111.93,0,250,0z"
	/>
</g></g><g transform="translate(16,128) scale(0.016,0.016)"><g transform="" style="fill: rgb(0, 0, 0);">
<path d="M250,0c138.077,0,250,111.93,250,250c0,138.077-111.923,250-250,250C111.93,500,0,388.077,0,250C0,111.93,111.93,0,250,0z"
	/>
</g></g><g transform="translate(24,128) scale(0.016,0.016)"><g transform="" style="fill: rgb(0, 0, 0);">
<path d="M250,0c138.077,0,250,111.93,250,250c0,138.077-111.923,250-250,250C111.93,500,0,388.077,0,250C0,111.93,111.93,0,250,0z"
	/>
</g></g><g transform="translate(32,128) scale(0.016,0.016)"><g transform="" style="fill: rgb(0, 0, 0);">
<path d="M250,0c138.077,0,250,111.93,250,250c0,138.077-111.923,250-250,250C111.93,500,0,388.077,0,250C0,111.93,111.93,0,250,0z"
	/>
</g></g><g transform="translate(48,128) scale(0.016,0.016)"><g transform="" style="fill: rgb(0, 0, 0);">
<path d="M250,0c138.077,0,250,111.93,250,250c0,138.077-111.923,250-250,250C111.93,500,0,388.077,0,250C0,111.93,111.93,0,250,0z"
	/>
</g></g><g transform="translate(56,128) scale(0.016,0.016)"><g transform="" style="fill: rgb(0, 0, 0);">
<path d="M250,0c138.077,0,250,111.93,250,250c0,138.077-111.923,250-250,250C111.93,500,0,388.077,0,250C0,111.93,111.93,0,250,0z"
	/>
</g></g><g transform="translate(96,128) scale(0.016,0.016)"><g transform="" style="fill: rgb(0, 0, 0);">
<path d="M250,0c138.077,0,250,111.93,250,250c0,138.077-111.923,250-250,250C111.93,500,0,388.077,0,250C0,111.93,111.93,0,250,0z"
	/>
</g></g><g transform="translate(104,128) scale(0.016,0.016)"><g transform="" style="fill: rgb(0, 0, 0);">
<path d="M250,0c138.077,0,250,111.93,250,250c0,138.077-111.923,250-250,250C111.93,500,0,388.077,0,250C0,111.93,111.93,0,250,0z"
	/>
</g></g><g transform="translate(112,128) scale(0.016,0.016)"><g transform="" style="fill: rgb(0, 0, 0);">
<path d="M250,0c138.077,0,250,111.93,250,250c0,138.077-111.923,250-250,250C111.93,500,0,388.077,0,250C0,111.93,111.93,0,250,0z"
	/>
</g></g><g transform="translate(120,128) scale(0.016,0.016)"><g transform="" style="fill: rgb(0, 0, 0);">
<path d="M250,0c138.077,0,250,111.93,250,250c0,138.077-111.923,250-250,250C111.93,500,0,388.077,0,250C0,111.93,111.93,0,250,0z"
	/>
</g></g><g transform="translate(128,128) scale(0.016,0.016)"><g transform="" style="fill: rgb(0, 0, 0);">
<path d="M250,0c138.077,0,250,111.93,250,250c0,138.077-111.923,250-250,250C111.93,500,0,388.077,0,250C0,111.93,111.93,0,250,0z"
	/>
</g></g><g transform="translate(136,128) scale(0.016,0.016)"><g transform="" style="fill: rgb(0, 0, 0);">
<path d="M250,0c138.077,0,250,111.93,250,250c0,138.077-111.923,250-250,250C111.93,500,0,388.077,0,250C0,111.93,111.93,0,250,0z"
	/>
</g></g><g transform="translate(144,128) scale(0.016,0.016)"><g transform="" style="fill: rgb(0, 0, 0);">
<path d="M250,0c138.077,0,250,111.93,250,250c0,138.077-111.923,250-250,250C111.93,500,0,388.077,0,250C0,111.93,111.93,0,250,0z"
	/>
</g></g><g transform="translate(152,128) scale(0.016,0.016)"><g transform="" style="fill: rgb(0, 0, 0);">
<path d="M250,0c138.077,0,250,111.93,250,250c0,138.077-111.923,250-250,250C111.93,500,0,388.077,0,250C0,111.93,111.93,0,250,0z"
	/>
</g></g><g transform="translate(160,128) scale(0.016,0.016)"><g transform="" style="fill: rgb(0, 0, 0);">
<path d="M250,0c138.077,0,250,111.93,250,250c0,138.077-111.923,250-250,250C111.93,500,0,388.077,0,250C0,111.93,111.93,0,250,0z"
	/>
</g></g><g transform="translate(176,128) scale(0.016,0.016)"><g transform="" style="fill: rgb(0, 0, 0);">
<path d="M250,0c138.077,0,250,111.93,250,250c0,138.077-111.923,250-250,250C111.93,500,0,388.077,0,250C0,111.93,111.93,0,250,0z"
	/>
</g></g><g transform="translate(64,136) scale(0.016,0.016)"><g transform="" style="fill: rgb(0, 0, 0);">
<path d="M250,0c138.077,0,250,111.93,250,250c0,138.077-111.923,250-250,250C111.93,500,0,388.077,0,250C0,111.93,111.93,0,250,0z"
	/>
</g></g><g transform="translate(72,136) scale(0.016,0.016)"><g transform="" style="fill: rgb(0, 0, 0);">
<path d="M250,0c138.077,0,250,111.93,250,250c0,138.077-111.923,250-250,250C111.93,500,0,388.077,0,250C0,111.93,111.93,0,250,0z"
	/>
</g></g><g transform="translate(112,136) scale(0.016,0.016)"><g transform="" style="fill: rgb(0, 0, 0);">
<path d="M250,0c138.077,0,250,111.93,250,250c0,138.077-111.923,250-250,250C111.93,500,0,388.077,0,250C0,111.93,111.93,0,250,0z"
	/>
</g></g><g transform="translate(128,136) scale(0.016,0.016)"><g transform="" style="fill: rgb(0, 0, 0);">
<path d="M250,0c138.077,0,250,111.93,250,250c0,138.077-111.923,250-250,250C111.93,500,0,388.077,0,250C0,111.93,111.93,0,250,0z"
	/>
</g></g><g transform="translate(160,136) scale(0.016,0.016)"><g transform="" style="fill: rgb(0, 0, 0);">
<path d="M250,0c138.077,0,250,111.93,250,250c0,138.077-111.923,250-250,250C111.93,500,0,388.077,0,250C0,111.93,111.93,0,250,0z"
	/>
</g></g><g transform="translate(96,144) scale(0.016,0.016)"><g transform="" style="fill: rgb(0, 0, 0);">
<path d="M250,0c138.077,0,250,111.93,250,250c0,138.077-111.923,250-250,250C111.93,500,0,388.077,0,250C0,111.93,111.93,0,250,0z"
	/>
</g></g><g transform="translate(104,144) scale(0.016,0.016)"><g transform="" style="fill: rgb(0, 0, 0);">
<path d="M250,0c138.077,0,250,111.93,250,250c0,138.077-111.923,250-250,250C111.93,500,0,388.077,0,250C0,111.93,111.93,0,250,0z"
	/>
</g></g><g transform="translate(112,144) scale(0.016,0.016)"><g transform="" style="fill: rgb(0, 0, 0);">
<path d="M250,0c138.077,0,250,111.93,250,250c0,138.077-111.923,250-250,250C111.93,500,0,388.077,0,250C0,111.93,111.93,0,250,0z"
	/>
</g></g><g transform="translate(128,144) scale(0.016,0.016)"><g transform="" style="fill: rgb(0, 0, 0);">
<path d="M250,0c138.077,0,250,111.93,250,250c0,138.077-111.923,250-250,250C111.93,500,0,388.077,0,250C0,111.93,111.93,0,250,0z"
	/>
</g></g><g transform="translate(144,144) scale(0.016,0.016)"><g transform="" style="fill: rgb(0, 0, 0);">
<path d="M250,0c138.077,0,250,111.93,250,250c0,138.077-111.923,250-250,250C111.93,500,0,388.077,0,250C0,111.93,111.93,0,250,0z"
	/>
</g></g><g transform="translate(160,144) scale(0.016,0.016)"><g transform="" style="fill: rgb(0, 0, 0);">
<path d="M250,0c138.077,0,250,111.93,250,250c0,138.077-111.923,250-250,250C111.93,500,0,388.077,0,250C0,111.93,111.93,0,250,0z"
	/>
</g></g><g transform="translate(192,144) scale(0.016,0.016)"><g transform="" style="fill: rgb(0, 0, 0);">
<path d="M250,0c138.077,0,250,111.93,250,250c0,138.077-111.923,250-250,250C111.93,500,0,388.077,0,250C0,111.93,111.93,0,250,0z"
	/>
</g></g><g transform="translate(72,152) scale(0.016,0.016)"><g transform="" style="fill: rgb(0, 0, 0);">
<path d="M250,0c138.077,0,250,111.93,250,250c0,138.077-111.923,250-250,250C111.93,500,0,388.077,0,250C0,111.93,111.93,0,250,0z"
	/>
</g></g><g transform="translate(80,152) scale(0.016,0.016)"><g transform="" style="fill: rgb(0, 0, 0);">
<path d="M250,0c138.077,0,250,111.93,250,250c0,138.077-111.923,250-250,250C111.93,500,0,388.077,0,250C0,111.93,111.93,0,250,0z"
	/>
</g></g><g transform="translate(88,152) scale(0.016,0.016)"><g transform="" style="fill: rgb(0, 0, 0);">
<path d="M250,0c138.077,0,250,111.93,250,250c0,138.077-111.923,250-250,250C111.93,500,0,388.077,0,250C0,111.93,111.93,0,250,0z"
	/>
</g></g><g transform="translate(120,152) scale(0.016,0.016)"><g transform="" style="fill: rgb(0, 0, 0);">
<path d="M250,0c138.077,0,250,111.93,250,250c0,138.077-111.923,250-250,250C111.93,500,0,388.077,0,250C0,111.93,111.93,0,250,0z"
	/>
</g></g><g transform="translate(128,152) scale(0.016,0.016)"><g transform="" style="fill: rgb(0, 0, 0);">
<path d="M250,0c138.077,0,250,111.93,250,250c0,138.077-111.923,250-250,250C111.93,500,0,388.077,0,250C0,111.93,111.93,0,250,0z"
	/>
</g></g><g transform="translate(160,152) scale(0.016,0.016)"><g transform="" style="fill: rgb(0, 0, 0);">
<path d="M250,0c138.077,0,250,111.93,250,250c0,138.077-111.923,250-250,250C111.93,500,0,388.077,0,250C0,111.93,111.93,0,250,0z"
	/>
</g></g><g transform="translate(72,160) scale(0.016,0.016)"><g transform="" style="fill: rgb(0, 0, 0);">
<path d="M250,0c138.077,0,250,111.93,250,250c0,138.077-111.923,250-250,250C111.93,500,0,388.077,0,250C0,111.93,111.93,0,250,0z"
	/>
</g></g><g transform="translate(80,160) scale(0.016,0.016)"><g transform="" style="fill: rgb(0, 0, 0);">
<path d="M250,0c138.077,0,250,111.93,250,250c0,138.077-111.923,250-250,250C111.93,500,0,388.077,0,250C0,111.93,111.93,0,250,0z"
	/>
</g></g><g transform="translate(88,160) scale(0.016,0.016)"><g transform="" style="fill: rgb(0, 0, 0);">
<path d="M250,0c138.077,0,250,111.93,250,250c0,138.077-111.923,250-250,250C111.93,500,0,388.077,0,250C0,111.93,111.93,0,250,0z"
	/>
</g></g><g transform="translate(120,160) scale(0.016,0.016)"><g transform="" style="fill: rgb(0, 0, 0);">
<path d="M250,0c138.077,0,250,111.93,250,250c0,138.077-111.923,250-250,250C111.93,500,0,388.077,0,250C0,111.93,111.93,0,250,0z"
	/>
</g></g><g transform="translate(128,160) scale(0.016,0.016)"><g transform="" style="fill: rgb(0, 0, 0);">
<path d="M250,0c138.077,0,250,111.93,250,250c0,138.077-111.923,250-250,250C111.93,500,0,388.077,0,250C0,111.93,111.93,0,250,0z"
	/>
</g></g><g transform="translate(136,160) scale(0.016,0.016)"><g transform="" style="fill: rgb(0, 0, 0);">
<path d="M250,0c138.077,0,250,111.93,250,250c0,138.077-111.923,250-250,250C111.93,500,0,388.077,0,250C0,111.93,111.93,0,250,0z"
	/>
</g></g><g transform="translate(144,160) scale(0.016,0.016)"><g transform="" style="fill: rgb(0, 0, 0);">
<path d="M250,0c138.077,0,250,111.93,250,250c0,138.077-111.923,250-250,250C111.93,500,0,388.077,0,250C0,111.93,111.93,0,250,0z"
	/>
</g></g><g transform="translate(152,160) scale(0.016,0.016)"><g transform="" style="fill: rgb(0, 0, 0);">
<path d="M250,0c138.077,0,250,111.93,250,250c0,138.077-111.923,250-250,250C111.93,500,0,388.077,0,250C0,111.93,111.93,0,250,0z"
	/>
</g></g><g transform="translate(160,160) scale(0.016,0.016)"><g transform="" style="fill: rgb(0, 0, 0);">
<path d="M250,0c138.077,0,250,111.93,250,250c0,138.077-111.923,250-250,250C111.93,500,0,388.077,0,250C0,111.93,111.93,0,250,0z"
	/>
</g></g><g transform="translate(176,160) scale(0.016,0.016)"><g transform="" style="fill: rgb(0, 0, 0);">
<path d="M250,0c138.077,0,250,111.93,250,250c0,138.077-111.923,250-250,250C111.93,500,0,388.077,0,250C0,111.93,111.93,0,250,0z"
	/>
</g></g><g transform="translate(184,160) scale(0.016,0.016)"><g transform="" style="fill: rgb(0, 0, 0);">
<path d="M250,0c138.077,0,250,111.93,250,250c0,138.077-111.923,250-250,250C111.93,500,0,388.077,0,250C0,111.93,111.93,0,250,0z"
	/>
</g></g><g transform="translate(192,160) scale(0.016,0.016)"><g transform="" style="fill: rgb(0, 0, 0);">
<path d="M250,0c138.077,0,250,111.93,250,250c0,138.077-111.923,250-250,250C111.93,500,0,388.077,0,250C0,111.93,111.93,0,250,0z"
	/>
</g></g><g transform="translate(96,168) scale(0.016,0.016)"><g transform="" style="fill: rgb(0, 0, 0);">
<path d="M250,0c138.077,0,250,111.93,250,250c0,138.077-111.923,250-250,250C111.93,500,0,388.077,0,250C0,111.93,111.93,0,250,0z"
	/>
</g></g><g transform="translate(104,168) scale(0.016,0.016)"><g transform="" style="fill: rgb(0, 0, 0);">
<path d="M250,0c138.077,0,250,111.93,250,250c0,138.077-111.923,250-250,250C111.93,500,0,388.077,0,250C0,111.93,111.93,0,250,0z"
	/>
</g></g><g transform="translate(112,168) scale(0.016,0.016)"><g transform="" style="fill: rgb(0, 0, 0);">
<path d="M250,0c138.077,0,250,111.93,250,250c0,138.077-111.923,250-250,250C111.93,500,0,388.077,0,250C0,111.93,111.93,0,250,0z"
	/>
</g></g><g transform="translate(120,168) scale(0.016,0.016)"><g transform="" style="fill: rgb(0, 0, 0);">
<path d="M250,0c138.077,0,250,111.93,250,250c0,138.077-111.923,250-250,250C111.93,500,0,388.077,0,250C0,111.93,111.93,0,250,0z"
	/>
</g></g><g transform="translate(136,168) scale(0.016,0.016)"><g transform="" style="fill: rgb(0, 0, 0);">
<path d="M250,0c138.077,0,250,111.93,250,250c0,138.077-111.923,250-250,250C111.93,500,0,388.077,0,250C0,111.93,111.93,0,250,0z"
	/>
</g></g><g transform="translate(144,168) scale(0.016,0.016)"><g transform="" style="fill: rgb(0, 0, 0);">
<path d="M250,0c138.077,0,250,111.93,250,250c0,138.077-111.923,250-250,250C111.93,500,0,388.077,0,250C0,111.93,111.93,0,250,0z"
	/>
</g></g><g transform="translate(184,168) scale(0.016,0.016)"><g transform="" style="fill: rgb(0, 0, 0);">
<path d="M250,0c138.077,0,250,111.93,250,250c0,138.077-111.923,250-250,250C111.93,500,0,388.077,0,250C0,111.93,111.93,0,250,0z"
	/>
</g></g><g transform="translate(192,168) scale(0.016,0.016)"><g transform="" style="fill: rgb(0, 0, 0);">
<path d="M250,0c138.077,0,250,111.93,250,250c0,138.077-111.923,250-250,250C111.93,500,0,388.077,0,250C0,111.93,111.93,0,250,0z"
	/>
</g></g><g transform="translate(72,176) scale(0.016,0.016)"><g transform="" style="fill: rgb(0, 0, 0);">
<path d="M250,0c138.077,0,250,111.93,250,250c0,138.077-111.923,250-250,250C111.93,500,0,388.077,0,250C0,111.93,111.93,0,250,0z"
	/>
</g></g><g transform="translate(80,176) scale(0.016,0.016)"><g transform="" style="fill: rgb(0, 0, 0);">
<path d="M250,0c138.077,0,250,111.93,250,250c0,138.077-111.923,250-250,250C111.93,500,0,388.077,0,250C0,111.93,111.93,0,250,0z"
	/>
</g></g><g transform="translate(104,176) scale(0.016,0.016)"><g transform="" style="fill: rgb(0, 0, 0);">
<path d="M250,0c138.077,0,250,111.93,250,250c0,138.077-111.923,250-250,250C111.93,500,0,388.077,0,250C0,111.93,111.93,0,250,0z"
	/>
</g></g><g transform="translate(112,176) scale(0.016,0.016)"><g transform="" style="fill: rgb(0, 0, 0);">
<path d="M250,0c138.077,0,250,111.93,250,250c0,138.077-111.923,250-250,250C111.93,500,0,388.077,0,250C0,111.93,111.93,0,250,0z"
	/>
</g></g><g transform="translate(128,176) scale(0.016,0.016)"><g transform="" style="fill: rgb(0, 0, 0);">
<path d="M250,0c138.077,0,250,111.93,250,250c0,138.077-111.923,250-250,250C111.93,500,0,388.077,0,250C0,111.93,111.93,0,250,0z"
	/>
</g></g><g transform="translate(168,176) scale(0.016,0.016)"><g transform="" style="fill: rgb(0, 0, 0);">
<path d="M250,0c138.077,0,250,111.93,250,250c0,138.077-111.923,250-250,250C111.93,500,0,388.077,0,250C0,111.93,111.93,0,250,0z"
	/>
</g></g><g transform="translate(176,176) scale(0.016,0.016)"><g transform="" style="fill: rgb(0, 0, 0);">
<path d="M250,0c138.077,0,250,111.93,250,250c0,138.077-111.923,250-250,250C111.93,500,0,388.077,0,250C0,111.93,111.93,0,250,0z"
	/>
</g></g><g transform="translate(192,176) scale(0.016,0.016)"><g transform="" style="fill: rgb(0, 0, 0);">
<path d="M250,0c138.077,0,250,111.93,250,250c0,138.077-111.923,250-250,250C111.93,500,0,388.077,0,250C0,111.93,111.93,0,250,0z"
	/>
</g></g><g transform="translate(96,184) scale(0.016,0.016)"><g transform="" style="fill: rgb(0, 0, 0);">
<path d="M250,0c138.077,0,250,111.93,250,250c0,138.077-111.923,250-250,250C111.93,500,0,388.077,0,250C0,111.93,111.93,0,250,0z"
	/>
</g></g><g transform="translate(104,184) scale(0.016,0.016)"><g transform="" style="fill: rgb(0, 0, 0);">
<path d="M250,0c138.077,0,250,111.93,250,250c0,138.077-111.923,250-250,250C111.93,500,0,388.077,0,250C0,111.93,111.93,0,250,0z"
	/>
</g></g><g transform="translate(128,184) scale(0.016,0.016)"><g transform="" style="fill: rgb(0, 0, 0);">
<path d="M250,0c138.077,0,250,111.93,250,250c0,138.077-111.923,250-250,250C111.93,500,0,388.077,0,250C0,111.93,111.93,0,250,0z"
	/>
</g></g><g transform="translate(136,184) scale(0.016,0.016)"><g transform="" style="fill: rgb(0, 0, 0);">
<path d="M250,0c138.077,0,250,111.93,250,250c0,138.077-111.923,250-250,250C111.93,500,0,388.077,0,250C0,111.93,111.93,0,250,0z"
	/>
</g></g><g transform="translate(144,184) scale(0.016,0.016)"><g transform="" style="fill: rgb(0, 0, 0);">
<path d="M250,0c138.077,0,250,111.93,250,250c0,138.077-111.923,250-250,250C111.93,500,0,388.077,0,250C0,111.93,111.93,0,250,0z"
	/>
</g></g><g transform="translate(152,184) scale(0.016,0.016)"><g transform="" style="fill: rgb(0, 0, 0);">
<path d="M250,0c138.077,0,250,111.93,250,250c0,138.077-111.923,250-250,250C111.93,500,0,388.077,0,250C0,111.93,111.93,0,250,0z"
	/>
</g></g><g transform="translate(160,184) scale(0.016,0.016)"><g transform="" style="fill: rgb(0, 0, 0);">
<path d="M250,0c138.077,0,250,111.93,250,250c0,138.077-111.923,250-250,250C111.93,500,0,388.077,0,250C0,111.93,111.93,0,250,0z"
	/>
</g></g><g transform="translate(192,184) scale(0.016,0.016)"><g transform="" style="fill: rgb(0, 0, 0);">
<path d="M250,0c138.077,0,250,111.93,250,250c0,138.077-111.923,250-250,250C111.93,500,0,388.077,0,250C0,111.93,111.93,0,250,0z"
	/>
</g></g><g transform="translate(64,192) scale(0.016,0.016)"><g transform="" style="fill: rgb(0, 0, 0);">
<path d="M250,0c138.077,0,250,111.93,250,250c0,138.077-111.923,250-250,250C111.93,500,0,388.077,0,250C0,111.93,111.93,0,250,0z"
	/>
</g></g><g transform="translate(72,192) scale(0.016,0.016)"><g transform="" style="fill: rgb(0, 0, 0);">
<path d="M250,0c138.077,0,250,111.93,250,250c0,138.077-111.923,250-250,250C111.93,500,0,388.077,0,250C0,111.93,111.93,0,250,0z"
	/>
</g></g><g transform="translate(88,192) scale(0.016,0.016)"><g transform="" style="fill: rgb(0, 0, 0);">
<path d="M250,0c138.077,0,250,111.93,250,250c0,138.077-111.923,250-250,250C111.93,500,0,388.077,0,250C0,111.93,111.93,0,250,0z"
	/>
</g></g><g transform="translate(96,192) scale(0.016,0.016)"><g transform="" style="fill: rgb(0, 0, 0);">
<path d="M250,0c138.077,0,250,111.93,250,250c0,138.077-111.923,250-250,250C111.93,500,0,388.077,0,250C0,111.93,111.93,0,250,0z"
	/>
</g></g><g transform="translate(104,192) scale(0.016,0.016)"><g transform="" style="fill: rgb(0, 0, 0);">
<path d="M250,0c138.077,0,250,111.93,250,250c0,138.077-111.923,250-250,250C111.93,500,0,388.077,0,250C0,111.93,111.93,0,250,0z"
	/>
</g></g><g transform="translate(120,192) scale(0.016,0.016)"><g transform="" style="fill: rgb(0, 0, 0);">
<path d="M250,0c138.077,0,250,111.93,250,250c0,138.077-111.923,250-250,250C111.93,500,0,388.077,0,250C0,111.93,111.93,0,250,0z"
	/>
</g></g><g transform="translate(128,192) scale(0.016,0.016)"><g transform="" style="fill: rgb(0, 0, 0);">
<path d="M250,0c138.077,0,250,111.93,250,250c0,138.077-111.923,250-250,250C111.93,500,0,388.077,0,250C0,111.93,111.93,0,250,0z"
	/>
</g></g><g transform="translate(144,192) scale(0.016,0.016)"><g transform="" style="fill: rgb(0, 0, 0);">
<path d="M250,0c138.077,0,250,111.93,250,250c0,138.077-111.923,250-250,250C111.93,500,0,388.077,0,250C0,111.93,111.93,0,250,0z"
	/>
</g></g><g transform="translate(168,192) scale(0.016,0.016)"><g transform="" style="fill: rgb(0, 0, 0);">
<path d="M250,0c138.077,0,250,111.93,250,250c0,138.077-111.923,250-250,250C111.93,500,0,388.077,0,250C0,111.93,111.93,0,250,0z"
	/>
</g></g><g transform="translate(192,192) scale(0.016,0.016)"><g transform="" style="fill: rgb(0, 0, 0);">
<path d="M250,0c138.077,0,250,111.93,250,250c0,138.077-111.923,250-250,250C111.93,500,0,388.077,0,250C0,111.93,111.93,0,250,0z"
	/>
</g></g><g transform="translate(0,0) scale(0.56, 0.56)"><g transform="" style="fill: rgb(0, 0, 0);">
<g>
	<path style="fill:none;" d="M65.859,15.008H34.141c-4.082,0-7.869,1.258-10.979,3.398c-2.419,1.665-4.428,3.864-5.848,6.421
		C15.838,27.484,15,30.526,15,33.758v32.471c0,10.344,8.586,18.76,19.145,18.76L50,84.992l15.855-0.004
		C76.414,84.988,85,76.572,85,66.229V33.758C85,23.419,76.414,15.008,65.859,15.008z"/>
	<path d="M65.859,0.008H34.141h0C18.683,0.008,5.587,10.221,1.4,24.18c-0.433,1.444-0.771,2.928-1.006,4.445
		C0.135,30.299,0,32.013,0,33.758v32.471c0,18.619,15.32,33.76,34.141,33.76L50,99.992l15.859-0.004
		c18.82,0,34.141-15.141,34.141-33.76V33.758C100,15.148,84.68,0.008,65.859,0.008z M85,66.229c0,10.344-8.586,18.76-19.145,18.76
		L50,84.992l-15.855-0.004C23.586,84.988,15,76.572,15,66.229V33.758c0-3.231,0.838-6.273,2.313-8.931
		c1.42-2.557,3.429-4.756,5.848-6.421c3.11-2.141,6.897-3.398,10.979-3.398h31.719C76.414,15.008,85,23.419,85,33.758V66.229z"/>
</g>
</g></g><g transform="translate(144,0) scale(0.56, 0.56)"><g transform="" style="fill: rgb(0, 0, 0);">
<g>
	<path style="fill:none;" d="M65.859,15.008H34.141c-4.082,0-7.869,1.258-10.979,3.398c-2.419,1.665-4.428,3.864-5.848,6.421
		C15.838,27.484,15,30.526,15,33.758v32.471c0,10.344,8.586,18.76,19.145,18.76L50,84.992l15.855-0.004
		C76.414,84.988,85,76.572,85,66.229V33.758C85,23.419,76.414,15.008,65.859,15.008z"/>
	<path d="M65.859,0.008H34.141h0C18.683,0.008,5.587,10.221,1.4,24.18c-0.433,1.444-0.771,2.928-1.006,4.445
		C0.135,30.299,0,32.013,0,33.758v32.471c0,18.619,15.32,33.76,34.141,33.76L50,99.992l15.859-0.004
		c18.82,0,34.141-15.141,34.141-33.76V33.758C100,15.148,84.68,0.008,65.859,0.008z M85,66.229c0,10.344-8.586,18.76-19.145,18.76
		L50,84.992l-15.855-0.004C23.586,84.988,15,76.572,15,66.229V33.758c0-3.231,0.838-6.273,2.313-8.931
		c1.42-2.557,3.429-4.756,5.848-6.421c3.11-2.141,6.897-3.398,10.979-3.398h31.719C76.414,15.008,85,23.419,85,33.758V66.229z"/>
</g>
</g></g><g transform="translate(0,144) scale(0.56, 0.56)"><g transform="" style="fill: rgb(0, 0, 0);">
<g>
	<path style="fill:none;" d="M65.859,15.008H34.141c-4.082,0-7.869,1.258-10.979,3.398c-2.419,1.665-4.428,3.864-5.848,6.421
		C15.838,27.484,15,30.526,15,33.758v32.471c0,10.344,8.586,18.76,19.145,18.76L50,84.992l15.855-0.004
		C76.414,84.988,85,76.572,85,66.229V33.758C85,23.419,76.414,15.008,65.859,15.008z"/>
	<path d="M65.859,0.008H34.141h0C18.683,0.008,5.587,10.221,1.4,24.18c-0.433,1.444-0.771,2.928-1.006,4.445
		C0.135,30.299,0,32.013,0,33.758v32.471c0,18.619,15.32,33.76,34.141,33.76L50,99.992l15.859-0.004
		c18.82,0,34.141-15.141,34.141-33.76V33.758C100,15.148,84.68,0.008,65.859,0.008z M85,66.229c0,10.344-8.586,18.76-19.145,18.76
		L50,84.992l-15.855-0.004C23.586,84.988,15,76.572,15,66.229V33.758c0-3.231,0.838-6.273,2.313-8.931
		c1.42-2.557,3.429-4.756,5.848-6.421c3.11-2.141,6.897-3.398,10.979-3.398h31.719C76.414,15.008,85,23.419,85,33.758V66.229z"/>
</g>
</g></g><g transform="translate(16,16) scale(0.24, 0.24)"><g transform="" style="fill: rgb(0, 0, 0);">
<g>
	<g id="XMLID_1_">
		<g>
			<path d="M27.351,100c-15.09,0-27.365-12.032-27.365-26.808V26.794c0-4.616,1.2-8.96,3.301-12.761
				c2.029-3.658,4.901-6.802,8.36-9.174C16.09,1.801,21.506,0,27.336,0h45.327c15.076,0,27.351,12.018,27.351,26.793v46.398
				c0,14.775-12.274,26.808-27.351,26.808H50H27.351z"/>
		</g>
		<g>
		</g>
	</g>
</g>
</g></g><g transform="translate(160,16) scale(0.24, 0.24)"><g transform="" style="fill: rgb(0, 0, 0);">
<g>
	<g id="XMLID_1_">
		<g>
			<path d="M27.351,100c-15.09,0-27.365-12.032-27.365-26.808V26.794c0-4.616,1.2-8.96,3.301-12.761
				c2.029-3.658,4.901-6.802,8.36-9.174C16.09,1.801,21.506,0,27.336,0h45.327c15.076,0,27.351,12.018,27.351,26.793v46.398
				c0,14.775-12.274,26.808-27.351,26.808H50H27.351z"/>
		</g>
		<g>
		</g>
	</g>
</g>
</g></g><g transform="translate(16,160) scale(0.24, 0.24)"><g transform="" style="fill: rgb(0, 0, 0);">
<g>
	<g id="XMLID_1_">
		<g>
			<path d="M27.351,100c-15.09,0-27.365-12.032-27.365-26.808V26.794c0-4.616,1.2-8.96,3.301-12.761
				c2.029-3.658,4.901-6.802,8.36-9.174C16.09,1.801,21.506,0,27.336,0h45.327c15.076,0,27.351,12.018,27.351,26.793v46.398
				c0,14.775-12.274,26.808-27.351,26.808H50H27.351z"/>
		</g>
		<g>
		</g>
	</g>
</g>
</g></g></g></svg>