<svg width="132" height="42" viewBox="0 0 132 42" fill="none" xmlns="http://www.w3.org/2000/svg">
<path d="M106.605 37.6556C104.503 29.8657 106.303 14.9869 107.807 1.52422C107.84 1.22368 107.957 -0.0610393 108.933 0.00011321C111.862 0.183574 112.615 0.226236 114.865 0.508148C115.541 0.592825 116.041 1.2702 115.841 2.28628C115.642 3.30236 109.954 33.8284 111.937 36.4702C113.525 38.587 122.975 36.4702 129.133 32.5753C129.693 32.2204 130.811 32.3809 131.16 33.168C131.46 33.8454 131.46 33.8454 131.761 34.6921C131.941 35.2001 132.094 35.7928 131.761 36.4702C129.654 40.7466 108.708 45.4456 106.605 37.6556Z" fill="white"/>
<path d="M102.174 39.7217C102.232 40.9198 101.364 41.7809 100.245 41.8432C99.1253 41.9054 98.1785 41.1453 98.1203 39.9471C98.0622 38.7489 98.9303 37.8878 100.05 37.8256C101.169 37.7633 102.116 38.5235 102.174 39.7217Z" fill="white"/>
<path d="M84.565 41.8965C63.1697 41.1481 69.1003 12.3736 71.8029 1.14655C71.9268 0.631871 72.3189 0.0654259 72.929 0.0654259H77.9587C78.7094 0.0654193 79.4086 0.983726 79.0848 1.89503C71.5776 23.0185 79.9 38.4551 83.4389 38.2373C90.1953 37.8215 92.9729 19.9414 87.2675 2.22768C86.9039 1.09857 87.7179 0.447537 88.5437 0.398089C89.3695 0.34864 92.8978 0.148599 93.6486 0.148599C94.3993 0.148599 94.7618 0.813945 94.8497 1.31288C96.6514 11.542 101.081 42.4743 84.565 41.8965Z" fill="white"/>
<path d="M50.139 36.9083C47.2825 37.7626 45.3276 33.6082 44.426 31.437C44.1588 30.7934 43.496 30.5595 42.9226 30.7129C42.3493 30.8663 41.6447 31.1152 40.6675 31.437C40.0305 31.6468 39.8754 32.0662 39.9157 32.7244C40.2164 37.6324 44.2005 43.5864 52.3941 41.3336C61.8243 38.7409 63.8201 14.9427 62.1663 2.14966C61.6751 -1.65015 53.4465 0.862349 53.4465 0.862349C52.9583 1.02862 52.5444 1.42557 52.6196 2.13096C54.0359 15.4207 55.2506 35.3796 50.139 36.9083Z" fill="white"/>
<path d="M0.120814 2.48047C-0.370137 -2.073 16.4893 0.227837 24.9382 4.66602C33.0757 8.9406 38.8585 15.9175 37.5017 25.6963C35.4092 40.7747 17.1966 42.8651 14.0583 41.5215C7.1456 38.5618 9.59558 18.156 11.7575 6.28711C11.8164 5.96324 11.8366 5.31721 11.279 5.16797C7.4433 4.49615 0.330096 4.42132 0.120814 2.48047ZM18.0515 7.80176C18.0392 7.85145 16.1374 15.5876 16.1374 22.6563C16.1374 28.6415 17.338 37.9239 17.3425 37.959C17.3425 37.959 28.3025 34.9208 29.6784 23.9258C31.2368 11.47 18.0732 7.80781 18.0515 7.80176Z" fill="white"/>
</svg>
